<svg width="25" height="24" viewBox="0 0 25 24" fill="none" xmlns="http://www.w3.org/2000/svg">
<path d="M12.5 16.7148C16.366 16.7148 19.5 13.5808 19.5 9.71484C19.5 5.84885 16.366 2.71484 12.5 2.71484C8.63401 2.71484 5.5 5.84885 5.5 9.71484C5.5 13.5808 8.63401 16.7148 12.5 16.7148Z" fill="#021130" stroke="white" stroke-width="2"/>
<path d="M8.5 21.271V16H16.593V21.271C16.5931 21.3896 16.5628 21.5062 16.505 21.6098C16.4472 21.7134 16.3638 21.8004 16.2629 21.8626C16.1619 21.9247 16.0466 21.96 15.9281 21.965C15.8096 21.97 15.6919 21.9445 15.586 21.891L12.859 20.512C12.7618 20.4634 12.6547 20.4381 12.546 20.4381C12.4373 20.4381 12.3302 20.4634 12.233 20.512L9.507 21.89C9.40123 21.9434 9.28353 21.9689 9.16512 21.964C9.04671 21.9591 8.93153 21.9239 8.83057 21.8618C8.72961 21.7998 8.64622 21.7129 8.58835 21.6095C8.53049 21.506 8.50007 21.3895 8.5 21.271Z" fill="white"/>
<path d="M16.8965 9.01903L14.8875 10.661L15.5005 13.116C15.5243 13.209 15.5191 13.3071 15.4854 13.397C15.4518 13.4869 15.3915 13.5644 15.3125 13.619C15.2322 13.6757 15.1373 13.7084 15.0391 13.7134C14.9409 13.7183 14.8432 13.6953 14.7575 13.647L12.5075 12.323L10.2575 13.647C10.1712 13.6938 10.0736 13.7156 9.97565 13.7101C9.87766 13.7046 9.78311 13.6721 9.70254 13.616C9.62339 13.562 9.56223 13.4855 9.52694 13.3964C9.49166 13.3072 9.48385 13.2096 9.50454 13.116L10.1165 10.661L8.10754 9.02003C8.03209 8.96016 7.97686 8.87856 7.94932 8.78627C7.92177 8.69398 7.92325 8.59545 7.95354 8.50402C7.98553 8.41169 8.04387 8.33075 8.12136 8.27121C8.19885 8.21168 8.29208 8.17615 8.38954 8.16902L11.0105 7.97602L12.0155 5.62802C12.0556 5.53939 12.1207 5.46437 12.2027 5.41215C12.2848 5.35993 12.3803 5.33278 12.4775 5.33403C12.6785 5.33403 12.8605 5.45002 12.9395 5.62802L13.9435 7.97602L16.5555 8.16902C16.6583 8.16464 16.7599 8.19205 16.8465 8.24753C16.9332 8.30301 17.0005 8.38384 17.0395 8.47903C17.0766 8.57249 17.0827 8.67538 17.057 8.77257C17.0312 8.86977 16.975 8.95615 16.8965 9.01903Z" fill="white"/>
</svg>
