<svg width="21" height="19" viewBox="0 0 21 19" fill="none" xmlns="http://www.w3.org/2000/svg">
<path d="M10.3707 6.72396e-05C10.268 -0.00101759 10.1675 0.028962 10.0822 0.0860705C9.99686 0.143179 9.93081 0.224747 9.8927 0.320067L7.4487 6.21007L1.0767 6.72007C0.976437 6.72625 0.880511 6.76316 0.801965 6.82579C0.723419 6.88841 0.666065 6.9737 0.637701 7.07007L0.527701 7.32007C0.494484 7.41461 0.491055 7.51707 0.517876 7.61363C0.544698 7.71019 0.600479 7.7962 0.677701 7.86007L5.5147 12.0001L4.0787 18.2201C4.05485 18.3173 4.06015 18.4194 4.09394 18.5137C4.12772 18.6079 4.1885 18.6901 4.2687 18.7501L4.5167 18.9001C4.6027 18.9671 4.7077 19.0021 4.8167 19.0001C4.90794 19.0019 4.9978 18.9776 5.0757 18.9301L10.5007 15.6001L15.9557 18.9301C16.0339 18.9778 16.1241 19.0021 16.2157 19.0001C16.3236 19.0021 16.4289 18.9668 16.5137 18.9001L16.7337 18.7501C16.8139 18.6901 16.8747 18.6079 16.9085 18.5137C16.9423 18.4194 16.9475 18.3173 16.9237 18.2201L15.4857 12.0001L20.3327 7.85007C20.4062 7.78574 20.4588 7.70091 20.4837 7.60648C20.5087 7.51204 20.5048 7.4123 20.4727 7.32007L20.3927 7.07007C20.3643 6.97355 20.3068 6.88815 20.228 6.82551C20.1493 6.76287 20.0531 6.72605 19.9527 6.72007L13.5817 6.21007L11.0977 0.320067C11.0627 0.224882 10.9989 0.142949 10.9152 0.0856156C10.8315 0.0282821 10.7321 -0.00161435 10.6307 6.72396e-05H10.3707Z" fill="white"/>
</svg>
